<?xml version="1.0"?>
<svg width="960" height="600" xmlns="http://www.w3.org/2000/svg" xmlns:svg="http://www.w3.org/2000/svg" preserveAspectRatio="none">
 <g>
  <title>Layer 1</title>
  <rect fill="#D8BF9E" stroke="null" stroke-width="null" stroke-dasharray="null" stroke-linejoin="null" stroke-linecap="null" x="0" y="0" width="960" height="600" id="svg_1"/>
  <path fill="#E1C8A9" d="m0.024819,243.300667l-0.074859,-0.070796l0,62.087821l0.074859,-0.070796l25.3024,-23.928944q7.485917,-7.008773 0.074859,-13.946751l-25.377259,-24.070535m344.277331,157.591208l12.202045,11.539698q7.336199,6.937978 14.747257,0l12.202045,-11.539698q7.336199,-7.008773 0,-13.946751l-12.202045,-11.539698q-7.411058,-6.937978 -14.747257,0l-12.276904,11.539698q-7.336199,6.937978 0.074859,13.946751m69.394452,-50.477328q-7.411058,6.937978 0,13.946751l12.202045,11.539698q7.336199,7.008773 14.672398,0l12.276904,-11.539698q7.336199,-7.008773 0,-13.946751l-12.202045,-11.539698q-7.411058,-7.008773 -14.747257,0l-12.202045,11.539698m-10.779721,-55.999392l-12.202045,11.539698q-7.336199,6.937978 0.074859,13.946751l12.127186,11.539698q7.411058,6.937978 14.747257,0l12.202045,-11.539698q7.411058,-7.008773 0,-13.946751l-12.127186,-11.539698q-7.411058,-6.937978 -14.822116,0m-334.620498,112.069579l-12.202045,-11.539698q-7.411058,-6.937978 -14.747257,0l-12.276904,11.539698q-7.336199,7.008773 0.074859,13.946751l12.202045,11.539698q7.336199,6.937978 14.747257,0l12.202045,-11.539698q7.336199,-6.937978 0,-13.946751m34.36036,8.920257q-7.411058,-6.937978 -14.747257,0l-12.276904,11.539698q-7.336199,7.008773 0.074859,13.946751l12.202045,11.539698q7.336199,6.937978 14.747257,0l12.202045,-11.539698q7.336199,-6.937978 0,-13.946751l-12.202045,-11.539698m118.951224,-85.521195q-7.411058,-7.008773 -14.747257,0l-69.469311,65.55681q-7.411058,7.008773 0,14.017547l69.469311,65.698401q7.411058,6.937978 14.747257,-0.070796l69.394452,-65.627606q7.336199,-7.008773 -0.074859,-13.946751l-69.319593,-65.627606m-19.987399,-46.017199q-7.411058,7.008773 -0.074859,14.017547l39.226206,36.955351q7.336199,7.008773 14.822116,0l39.001629,-36.955351q7.485917,-7.008773 0.074859,-13.946751l-39.076488,-37.096942q-7.411058,-6.937978 -14.822116,0l-39.151347,37.026146m-24.254372,-42.619006q-7.411058,-6.937978 -14.747257,0l-12.202045,11.539698q-7.336199,7.008773 0.074859,13.946751l12.127186,11.539698q7.336199,6.937978 14.747257,0l12.276904,-11.539698q7.336199,-6.937978 0,-13.946751l-12.276904,-11.539698m-66.998959,-110.370482l-12.276904,11.539698q-7.336199,7.008773 0.074859,13.946751l12.202045,11.539698q7.336199,6.937978 14.747257,0l12.202045,-11.539698q7.336199,-6.937978 0,-13.946751l-12.202045,-11.539698q-7.411058,-6.937978 -14.747257,0m-15.795285,30.442147q-7.411058,-6.937978 -14.822116,0l-39.151347,37.026146q-7.411058,7.008773 0,14.017547l39.151347,36.955351q7.336199,7.008773 14.822116,0l39.076488,-36.955351q7.411058,-7.008773 0,-13.946751l-39.076488,-37.096942m361.944096,13.592773l-27.323598,-25.769632q-7.411058,-7.008773 -14.822116,0l-27.173879,25.769632q-7.485917,7.008773 -0.074859,14.017547l27.248739,25.769632q7.336199,7.008773 14.822116,0l27.248739,-25.769632q7.411058,-7.008773 0.074859,-14.017547m-137.291721,58.264854q-7.411058,-6.937978 -14.822116,0l-12.202045,11.539698q-7.336199,7.008773 0.074859,13.946751l12.127186,11.539698q7.411058,6.937978 14.822116,0l12.202045,-11.539698q7.336199,-6.937978 0,-13.946751l-12.202045,-11.539698m485.012575,221.236534q-7.411058,-7.008773 -14.822116,0l-12.202045,11.539698q-7.336199,6.937978 0.074859,13.946751l12.127186,11.539698q7.411058,7.008773 14.747257,0l12.276904,-11.539698q7.336199,-7.008773 0,-13.946751l-12.202045,-11.539698m9.806552,-42.477415l-12.276904,11.539698q-7.336199,7.008773 0.074859,13.946751l12.202045,11.539698q7.336199,6.937978 14.747257,0l12.202045,-11.539698q7.336199,-6.937978 0,-13.946751l-12.202045,-11.539698q-7.411058,-6.937978 -14.747257,0m6.063593,-125.733147l-12.202045,-11.539698q-7.411058,-6.937978 -14.822116,0l-12.202045,11.539698q-7.336199,7.008773 0.074859,13.946751l12.127186,11.539698q7.411058,6.937978 14.822116,0l12.202045,-11.539698q7.336199,-6.937978 0,-13.946751m84.890301,81.627432l12.202045,11.610493q7.336199,6.937978 14.747257,0l12.202045,-11.610493q7.336199,-6.937978 0,-13.946751l-12.202045,-11.539698q-7.411058,-6.937978 -14.747257,0l-12.202045,11.539698q-7.336199,7.008773 0,13.946751m-32.114585,-76.246959q-7.411058,-6.937978 -14.822116,0.070796l-28.446485,26.902363q-7.411058,7.008773 0,13.946751l28.446485,26.902363q7.411058,6.937978 14.822116,-0.070796l28.371626,-26.831567q7.485917,-7.008773 0.074859,-13.946751l-28.446485,-26.973158m-368.980858,217.130384l-12.202045,11.539698q-7.336199,6.937978 0.074859,13.946751l12.127186,11.610493q7.336199,6.937978 14.747257,0l12.202045,-11.610493q7.336199,-7.008773 0,-13.946751l-12.127186,-11.539698q-7.485917,-6.937978 -14.822116,0m3.443522,-244.032747q7.411058,-7.008773 0,-13.946751l-39.076488,-37.096942q-7.411058,-6.937978 -14.822116,0l-39.151347,37.026146q-7.411058,7.008773 0,14.017547l39.151347,36.955351q7.336199,7.008773 14.822116,0l39.076488,-36.955351m146.349681,-60.45952q-7.336199,-7.008773 -14.747257,0l-161.246656,152.564714q-7.336199,7.008773 0,13.946751l161.321515,152.564714q7.336199,7.008773 14.672398,0l161.321515,-152.564714q7.485917,-7.008773 0.074859,-14.017547l-161.396375,-152.493918m-56.144379,-119.786309q-7.411058,-7.008773 -14.747257,0l-69.469311,65.55681q-7.411058,7.008773 0,14.017547l69.469311,65.698401q7.411058,6.937978 14.747257,-0.070796l69.394452,-65.627606q7.336199,-7.008773 -0.074859,-13.946751l-69.319593,-65.627606m-114.908829,6.371612q7.411058,-6.937978 0,-13.875955l-12.202045,-11.539698q-7.336199,-7.008773 -14.747257,0l-12.202045,11.539698q-7.411058,6.937978 0,13.875955l12.202045,11.539698q7.411058,7.008773 14.747257,0l12.202045,-11.539698m228.769629,-8.849461q7.336199,-7.008773 0,-13.946751l-12.202045,-11.539698q-7.336199,-6.937978 -14.747257,0l-12.276904,11.539698q-7.336199,6.937978 0.074859,13.946751l12.202045,11.539698q7.411058,6.937978 14.747257,0l12.202045,-11.539698m243.741464,158.440756q-7.411058,-6.937978 -14.822116,0.070796l-28.371626,26.902363q-7.411058,7.008773 0,13.946751l28.371626,26.902363q7.411058,6.937978 14.822116,-0.070796l2.994367,-2.831828l0,-62.087821l-2.994367,-2.831828m-206.311878,-75.751389q-7.411058,-6.937978 -14.822116,0.070796l-28.446485,26.902363q-7.411058,7.008773 0,13.946751l28.446485,26.973158q7.411058,6.937978 14.822116,-0.070796l28.296767,-26.902363q7.485917,-7.008773 0.074859,-13.946751l-28.371626,-26.973158m-26.649865,-29.663395l12.202045,-11.539698q7.336199,-7.008773 0,-13.946751l-12.202045,-11.539698q-7.411058,-6.937978 -14.747257,0l-12.276904,11.539698q-7.336199,6.937978 0.074859,13.946751l12.202045,11.539698q7.336199,6.937978 14.747257,0m-680.020717,310.863879q-7.411058,-6.937978 -14.822116,0l-27.323598,25.840427l0,36.388985l27.323598,25.769632q7.336199,7.008773 14.822116,0l39.076488,-36.955351q7.411058,-7.008773 0,-13.946751l-39.076488,-37.096942m904.223937,37.026146q-7.411058,7.008773 0,14.017547l11.827749,11.185719l0,-36.388985l-11.827749,11.185719z" id="svg_17"/>
 </g>
</svg>